<?xml version="1.0" standalone="no"?>
<!DOCTYPE svg PUBLIC "-//W3C//DTD SVG 20010904//EN"
 "http://www.w3.org/TR/2001/REC-SVG-20010904/DTD/svg10.dtd">
<svg version="1.0" xmlns="http://www.w3.org/2000/svg"
 width="50.000000pt" height="50.000000pt" viewBox="0 0 50.000000 50.000000"
 preserveAspectRatio="xMidYMid meet">

<g transform="translate(0.000000,50.000000) scale(0.100000,-0.100000)"
fill="#000000" stroke="none">
<path d="M118 383 c-2 -65 -2 -169 0 -230 l3 -113 55 0 c47 0 54 -2 54 -20 0
-15 7 -20 26 -20 21 0 25 4 21 20 -4 17 0 20 28 20 28 0 32 -3 28 -20 -4 -16
0 -20 21 -20 19 0 26 5 26 20 0 15 7 20 25 20 18 0 25 -5 25 -20 0 -15 7 -20
25 -20 23 0 25 3 25 50 0 47 -2 50 -25 50 l-25 0 0 200 0 200 -154 0 -155 0
-3 -117z m124 95 c-17 -17 -15 -53 3 -68 38 -31 96 27 65 65 -11 13 -4 15 49
15 l61 0 0 -220 c0 -213 -1 -220 -20 -220 -15 0 -20 7 -20 25 0 16 -6 25 -15
25 -9 0 -15 -9 -15 -25 0 -14 -4 -25 -9 -25 -9 0 -21 48 -21 84 0 12 -14 38
-31 59 l-30 37 17 60 c19 67 11 90 -32 90 -27 0 -99 -42 -107 -62 -3 -7 -6 29
-6 80 l-1 92 62 0 c48 0 59 -3 50 -12z m-44 -212 l-10 -48 42 -43 c31 -32 43
-53 47 -84 4 -27 2 -41 -6 -41 -6 0 -11 11 -11 25 0 16 -6 25 -15 25 -9 0 -15
-9 -15 -25 0 -21 -5 -25 -30 -25 -16 0 -30 1 -30 3 0 2 11 18 25 37 30 41 31
61 5 85 -19 18 -20 17 -20 -2 0 -10 -11 -34 -25 -53 l-25 -34 0 73 c0 74 16
114 58 148 21 17 22 14 10 -41z"/>
<path d="M307 323 c-4 -3 -7 -15 -7 -25 0 -21 63 -53 86 -44 22 9 16 25 -13
38 -16 7 -35 18 -44 25 -9 7 -19 10 -22 6z"/>
<path d="M30 50 c0 -47 2 -50 25 -50 23 0 25 3 25 50 0 47 -2 50 -25 50 -23 0
-25 -3 -25 -50z"/>
<path d="M148 23 c-27 -7 -22 -23 7 -23 16 0 25 6 25 15 0 15 -2 16 -32 8z"/>
</g>
</svg>
